<svg id="svg" version="1.1" xmlns="http://www.w3.org/2000/svg" xmlns:xlink="http://www.w3.org/1999/xlink" width="400" height="462.87367405978785" viewBox="0, 0, 400,462.87367405978785"><g id="svgg"><path id="path0" d="M197.300 1.424 C 195.703 2.281,10.153 109.379,4.532 112.688 L 0.000 115.356 0.000 231.636 L 0.000 347.917 1.446 348.823 C 2.242 349.321,46.876 375.120,100.634 406.152 C 198.028 462.375,198.381 462.575,200.152 462.385 C 201.886 462.199,396.524 350.310,399.091 348.023 L 400.000 347.214 399.988 231.755 C 399.978 135.461,399.889 116.183,399.455 115.611 C 399.169 115.234,354.446 89.240,300.072 57.848 C 194.188 -3.282,200.060 -0.058,197.300 1.424 M296.009 65.188 L 391.890 120.540 391.895 231.647 L 391.900 342.754 295.837 398.216 L 199.775 453.679 103.648 398.180 L 7.522 342.681 7.522 231.661 L 7.522 120.642 103.568 65.164 C 156.393 34.651,199.730 9.719,199.872 9.761 C 200.013 9.802,243.275 34.744,296.009 65.188 M65.574 195.424 C 60.487 198.150,56.828 198.765,52.308 197.656 L 51.193 197.382 51.384 199.368 C 51.683 202.476,52.405 202.893,57.491 202.893 C 61.803 202.893,62.646 203.232,61.594 204.542 C 60.859 205.457,56.721 206.073,54.561 205.589 C 52.325 205.088,51.929 205.396,52.296 207.353 C 52.831 210.207,53.828 210.717,58.554 210.555 C 65.297 210.325,64.321 212.753,57.493 213.196 C 53.453 213.457,53.392 213.502,54.220 215.574 C 55.322 218.327,57.398 218.926,61.604 217.704 C 64.844 216.762,66.127 218.709,63.121 220.005 C 60.401 221.179,59.713 221.408,58.902 221.414 C 56.788 221.429,56.924 223.554,59.154 225.353 C 60.326 226.298,64.096 225.715,65.427 224.383 C 66.133 223.677,67.502 224.114,67.502 225.046 C 67.502 226.088,66.357 227.040,63.739 228.175 C 61.527 229.134,62.049 231.068,64.830 232.220 C 65.941 232.680,70.203 230.770,70.203 229.812 C 70.203 229.251,71.275 229.501,71.511 230.118 C 71.900 231.131,71.780 231.786,71.070 232.532 C 67.939 235.825,68.058 235.614,68.889 236.389 C 70.491 237.881,72.792 237.752,74.347 236.082 L 75.094 235.280 75.762 236.926 C 76.129 237.832,76.529 239.592,76.652 240.838 L 76.876 243.103 74.986 244.850 C 73.946 245.810,72.011 247.107,70.685 247.732 C 68.022 248.986,67.882 249.268,69.144 250.832 C 70.828 252.919,73.620 252.544,76.663 249.822 L 77.531 249.046 77.531 250.610 C 77.531 252.180,75.645 254.317,73.592 255.074 C 71.762 255.747,74.666 259.107,76.722 258.696 L 77.832 258.474 77.984 261.158 C 78.099 263.205,78.321 264.028,78.918 264.625 L 79.702 265.408 80.438 264.595 C 80.969 264.007,81.215 263.044,81.324 261.128 L 81.474 258.474 82.584 258.696 C 84.821 259.144,87.485 255.770,85.520 254.978 C 83.464 254.149,81.428 251.759,81.650 250.436 L 81.861 249.185 82.897 250.050 C 85.805 252.482,88.829 252.882,90.040 250.995 C 91.159 249.250,90.970 248.774,88.805 247.890 C 87.665 247.424,85.767 246.126,84.488 244.937 L 82.205 242.816 82.551 240.752 C 82.742 239.617,83.191 237.919,83.550 236.980 L 84.202 235.271 84.954 236.078 C 86.537 237.776,88.986 237.892,90.356 236.332 C 91.007 235.590,90.971 235.502,89.295 233.710 C 87.573 231.869,87.251 230.980,87.921 229.921 C 88.210 229.464,88.490 229.537,89.555 230.346 C 92.751 232.776,94.527 232.982,96.166 231.112 C 97.420 229.681,97.271 228.973,95.550 228.193 C 92.890 226.986,91.803 226.074,91.803 225.046 C 91.803 224.114,93.172 223.677,93.878 224.383 C 94.338 224.843,97.731 226.037,98.554 226.028 C 99.601 226.017,100.844 224.953,101.626 223.397 C 102.403 221.853,102.357 221.792,100.089 221.368 C 96.120 220.627,93.731 218.929,94.947 217.713 C 95.422 217.238,95.796 217.242,97.719 217.743 C 102.519 218.994,105.304 217.748,105.304 214.351 C 105.304 213.444,105.196 213.408,101.839 213.217 C 95.157 212.836,93.971 210.319,100.585 210.556 C 105.660 210.739,108.175 208.885,107.002 205.827 C 106.725 205.106,106.772 205.110,104.587 205.614 C 102.589 206.074,98.421 205.425,97.712 204.542 C 96.663 203.236,97.505 202.893,101.777 202.887 C 104.035 202.884,106.060 202.754,106.277 202.598 C 108.177 201.233,108.718 197.227,106.943 197.663 C 102.491 198.757,99.709 198.320,94.252 195.671 C 88.802 193.026,88.952 192.888,88.704 200.771 C 88.440 209.159,87.211 211.743,82.712 213.370 C 81.935 213.651,81.279 214.261,80.949 215.009 C 80.212 216.681,78.946 216.790,78.303 215.236 C 77.997 214.499,77.228 213.743,76.302 213.271 C 71.638 210.891,70.588 208.553,70.588 200.540 C 70.588 193.125,70.339 192.871,65.574 195.424 M86.284 194.311 C 86.066 194.648,84.705 194.793,81.755 194.793 C 77.956 194.793,77.490 194.869,77.056 195.564 C 76.780 196.006,76.157 196.336,75.596 196.336 C 73.559 196.336,72.899 197.273,72.933 200.118 C 72.950 201.538,73.051 202.483,73.158 202.218 C 73.272 201.934,74.054 201.736,75.056 201.736 C 76.923 201.736,76.937 201.764,76.357 204.339 C 75.290 209.084,75.287 209.116,75.893 209.348 C 76.214 209.471,76.798 209.371,77.191 209.125 C 78.324 208.418,78.636 208.585,78.910 210.046 C 79.226 211.728,79.846 211.601,80.396 209.740 C 80.781 208.437,80.863 208.378,81.559 208.894 C 83.680 210.469,84.275 208.086,83.081 202.797 C 82.906 202.019,82.990 201.736,83.398 201.736 C 84.895 201.736,86.923 197.813,86.718 195.315 C 86.642 194.385,86.479 194.009,86.284 194.311 M81.003 197.076 C 81.003 197.499,79.434 198.294,79.059 198.062 C 78.649 197.809,78.557 196.596,78.920 196.233 C 79.178 195.975,81.003 196.714,81.003 197.076 M250.530 199.275 C 241.567 201.585,237.007 213.597,241.542 222.951 C 242.835 225.618,245.344 228.737,246.196 228.737 C 246.393 228.737,247.015 229.052,247.578 229.438 C 253.355 233.396,262.784 230.085,266.099 222.934 C 271.788 210.661,262.300 196.242,250.530 199.275 M308.197 199.272 C 297.301 201.347,297.529 215.212,308.500 217.707 C 315.004 219.186,317.057 221.701,313.636 223.999 C 311.539 225.408,304.923 224.828,301.548 222.940 C 300.471 222.337,300.447 222.408,300.564 225.884 L 300.675 229.202 302.218 229.678 C 313.862 233.269,321.697 229.881,321.697 221.254 C 321.697 216.102,318.817 213.375,311.668 211.757 C 306.516 210.591,305.231 208.077,308.703 205.960 C 310.475 204.879,317.716 205.460,319.171 206.799 C 320.477 208.001,320.959 207.188,320.845 203.971 L 320.733 200.806 318.804 200.101 C 316.893 199.402,310.241 198.882,308.197 199.272 M133.086 200.411 C 133.306 200.991,133.462 207.477,133.462 216.083 L 133.462 230.767 140.694 230.588 C 153.474 230.273,157.904 226.330,157.940 215.236 C 157.978 203.502,153.246 199.434,139.547 199.426 L 132.710 199.421 133.086 200.411 M167.659 200.112 C 167.758 200.492,166.639 204.441,165.171 208.887 C 159.850 225.008,158.149 230.237,158.149 230.464 C 158.149 230.591,159.667 230.645,161.524 230.584 L 164.899 230.473 165.595 228.158 C 166.930 223.723,166.326 224.108,171.944 224.108 L 176.885 224.108 177.882 227.290 L 178.878 230.473 182.393 230.583 C 186.210 230.704,186.071 230.807,185.152 228.544 C 184.628 227.254,182.633 221.206,180.317 213.886 C 179.108 210.068,177.978 206.596,177.805 206.172 C 177.632 205.747,177.205 204.446,176.856 203.279 C 175.649 199.238,175.908 199.421,171.427 199.421 C 167.822 199.421,167.494 199.482,167.659 200.112 M188.378 200.289 C 188.506 200.767,188.613 207.797,188.616 215.911 L 188.621 230.665 198.264 230.665 L 207.907 230.665 207.907 227.580 L 207.907 224.494 201.543 224.494 L 195.178 224.494 195.178 211.958 L 195.178 199.421 191.662 199.421 C 188.203 199.421,188.149 199.436,188.378 200.289 M211.136 200.289 C 211.264 200.767,211.371 207.797,211.374 215.911 L 211.379 230.665 214.658 230.665 L 217.936 230.665 217.936 224.301 L 217.936 217.936 223.529 217.936 L 229.122 217.936 229.122 224.301 L 229.122 230.665 232.401 230.665 L 235.680 230.665 235.680 215.043 L 235.680 199.421 232.305 199.421 L 228.930 199.421 229.060 205.593 L 229.190 211.765 223.563 211.765 L 217.936 211.765 217.936 205.593 L 217.936 199.421 214.420 199.421 C 210.961 199.421,210.907 199.436,211.136 200.289 M271.436 202.025 C 271.492 203.457,271.609 208.447,271.696 213.115 C 271.903 224.258,273.161 227.625,277.880 229.657 C 280.795 230.912,281.362 231.051,283.580 231.051 C 287.802 231.051,293.539 228.366,293.539 226.391 C 293.539 226.226,293.798 225.833,294.115 225.516 C 295.484 224.147,295.853 220.842,295.853 209.948 L 295.853 199.421 292.112 199.421 C 289.202 199.421,288.473 199.524,288.833 199.884 C 289.805 200.856,289.455 219.762,288.429 221.699 C 286.778 224.818,282.886 225.455,280.150 223.056 C 278.637 221.729,278.496 220.598,278.496 209.811 L 278.496 199.421 274.915 199.421 L 271.334 199.421 271.436 202.025 M326.478 200.032 C 326.606 200.367,326.712 207.397,326.712 215.654 L 326.712 230.665 329.990 230.665 L 333.269 230.665 333.269 215.043 L 333.269 199.421 329.756 199.421 C 326.711 199.421,326.275 199.503,326.478 200.032 M338.669 199.977 C 338.669 200.283,338.843 200.640,339.055 200.771 C 339.301 200.924,339.441 206.369,339.441 215.838 L 339.441 230.665 349.470 230.665 L 359.499 230.665 359.499 227.580 L 359.499 224.494 352.555 224.494 L 345.612 224.494 345.612 221.215 L 345.612 217.936 351.398 217.936 L 357.184 217.936 357.184 215.043 L 357.184 212.150 351.383 212.150 L 345.581 212.150 345.693 208.968 L 345.805 205.786 352.652 205.681 L 359.499 205.575 359.499 202.498 L 359.499 199.421 349.084 199.421 C 340.273 199.421,338.669 199.507,338.669 199.977 M147.473 206.551 C 150.194 207.842,151.459 211.319,151.122 216.576 C 150.786 221.803,148.526 224.072,143.331 224.396 L 140.019 224.602 140.019 215.041 L 140.019 205.479 143.120 205.718 C 144.826 205.849,146.784 206.224,147.473 206.551 M256.677 206.359 C 262.896 209.396,261.900 222.863,255.349 224.301 C 247.567 226.011,243.275 213.486,249.507 207.254 C 251.309 205.452,254.105 205.103,256.677 206.359 M174.118 214.465 C 174.671 216.268,175.123 217.874,175.122 218.033 C 175.121 218.192,173.657 218.322,171.868 218.322 L 168.615 218.322 169.593 214.947 C 170.131 213.091,170.849 210.589,171.189 209.388 L 171.807 207.204 172.460 209.195 C 172.818 210.290,173.565 212.662,174.118 214.465 M284.819 237.913 C 278.589 240.011,278.324 249.708,284.463 250.932 C 292.079 252.451,294.991 255.423,292.161 258.787 C 289.637 261.786,283.988 260.985,282.497 257.416 C 281.857 255.885,279.267 255.420,279.267 256.836 C 279.267 263.563,292.057 265.558,295.226 259.325 C 296.273 257.265,295.771 252.609,294.367 251.365 C 293.435 250.538,290.898 249.180,290.286 249.180 C 287.003 249.180,282.739 246.448,282.739 244.346 C 282.739 239.299,291.504 238.614,292.436 243.587 C 292.546 244.174,292.941 244.388,294.079 244.482 L 295.577 244.605 295.347 243.187 C 294.689 239.131,289.268 236.415,284.819 237.913 M133.536 247.927 C 133.737 262.076,134.577 263.493,142.461 262.986 C 148.495 262.598,149.254 260.833,149.268 247.155 L 149.277 237.994 147.956 237.994 L 146.636 237.994 146.510 247.541 C 146.352 259.526,146.003 260.366,141.188 260.366 C 136.823 260.366,136.167 258.591,136.164 246.770 L 136.162 237.994 134.778 237.994 L 133.395 237.994 133.536 247.927 M160.463 250.530 L 160.463 263.067 161.806 263.067 L 163.150 263.067 163.253 253.165 L 163.356 243.263 164.852 245.740 C 167.265 249.734,168.703 252.184,171.401 256.895 C 174.753 262.748,175.008 263.067,176.332 263.067 L 177.435 263.067 177.435 250.530 L 177.435 237.994 176.085 237.994 L 174.735 237.994 174.735 247.445 C 174.735 252.642,174.605 256.891,174.446 256.886 C 174.286 256.881,172.969 254.755,171.519 252.161 C 168.225 246.271,167.170 244.463,166.741 243.973 C 166.556 243.761,165.725 242.329,164.895 240.791 C 163.431 238.077,163.343 237.994,161.925 237.994 L 160.463 237.994 160.463 250.530 M189.778 250.530 L 189.778 263.067 191.128 263.067 L 192.478 263.067 192.478 250.530 L 192.478 237.994 191.128 237.994 L 189.778 237.994 189.778 250.530 M202.507 238.529 C 202.507 238.823,202.930 240.342,203.446 241.904 C 203.962 243.466,204.577 245.526,204.812 246.480 C 205.047 247.435,205.396 248.563,205.588 248.987 C 205.780 249.412,206.275 250.974,206.688 252.459 C 209.790 263.616,209.538 263.067,211.557 263.067 L 213.185 263.067 213.975 260.270 C 215.754 253.978,216.452 251.649,216.779 250.916 C 216.968 250.492,217.497 248.843,217.954 247.252 C 218.981 243.674,220.147 239.700,220.456 238.727 C 220.653 238.106,220.490 237.994,219.389 237.994 L 218.089 237.994 216.803 242.141 C 216.096 244.421,215.210 247.242,214.835 248.409 C 214.460 249.576,213.582 252.396,212.883 254.677 C 211.377 259.592,211.277 259.646,210.395 256.027 C 210.020 254.489,209.573 252.970,209.403 252.652 C 209.232 252.334,208.755 250.858,208.342 249.373 C 205.293 238.395,205.129 237.994,203.674 237.994 C 202.937 237.994,202.507 238.191,202.507 238.529 M229.122 250.530 L 229.122 263.067 236.258 263.067 L 243.394 263.067 243.394 261.727 L 243.394 260.387 237.705 260.280 L 232.015 260.174 232.015 255.931 L 232.015 251.688 236.933 251.580 L 241.851 251.472 241.851 250.133 L 241.851 248.795 237.030 248.795 L 232.208 248.795 232.208 244.744 L 232.208 240.694 237.608 240.694 L 243.009 240.694 243.009 239.344 L 243.009 237.994 236.066 237.994 L 229.122 237.994 229.122 250.530 M254.195 250.530 L 254.195 263.067 255.352 263.067 L 256.509 263.067 256.509 257.473 L 256.509 251.880 259.524 251.880 L 262.538 251.880 263.434 254.484 C 263.927 255.916,264.555 257.608,264.830 258.245 C 265.105 258.881,265.583 260.183,265.893 261.138 C 266.428 262.787,266.535 262.880,268.042 262.992 L 269.628 263.111 269.186 262.028 C 268.943 261.432,268.529 260.424,268.265 259.788 C 268.002 259.151,267.570 257.936,267.305 257.088 C 267.040 256.239,266.704 255.371,266.557 255.159 C 265.816 254.084,265.223 251.354,265.697 251.197 C 268.135 250.384,269.371 247.831,269.178 244.007 C 268.924 238.976,267.363 237.994,259.614 237.994 L 254.195 237.994 254.195 250.530 M306.654 250.530 L 306.654 263.067 308.004 263.067 L 309.354 263.067 309.354 250.530 L 309.354 237.994 308.004 237.994 L 306.654 237.994 306.654 250.530 M318.997 239.344 L 318.997 240.694 322.469 240.694 L 325.940 240.694 325.940 251.880 L 325.940 263.067 327.290 263.067 L 328.640 263.067 328.640 251.880 L 328.640 240.694 332.112 240.694 L 335.583 240.694 335.583 239.344 L 335.583 237.994 327.290 237.994 L 318.997 237.994 318.997 239.344 M342.912 238.265 C 342.912 238.517,345.629 243.930,348.853 250.103 L 350.241 252.762 350.241 257.914 L 350.241 263.067 351.398 263.067 L 352.555 263.067 352.547 257.763 L 352.539 252.459 353.993 249.566 C 354.794 247.975,355.535 246.586,355.641 246.480 C 355.802 246.320,359.407 239.256,359.820 238.294 C 359.891 238.129,359.276 237.994,358.454 237.994 C 356.790 237.994,357.202 237.400,353.302 245.436 C 351.357 249.446,351.252 249.542,350.597 247.922 C 350.319 247.235,349.995 246.586,349.877 246.480 C 349.759 246.374,348.740 244.421,347.614 242.141 C 345.602 238.071,345.540 237.994,344.238 237.994 C 343.509 237.994,342.912 238.116,342.912 238.265 M264.425 240.917 C 266.248 241.782,267.179 244.153,266.501 246.206 C 265.714 248.591,264.302 249.317,260.095 249.501 L 256.509 249.658 256.509 244.983 L 256.509 240.309 259.826 240.309 C 262.047 240.309,263.566 240.510,264.425 240.917 M347.535 347.637 C 347.528 348.208,350.704 362.315,350.895 362.559 C 350.967 362.651,351.229 362.522,351.478 362.273 C 352.100 361.651,348.821 347.155,348.057 347.155 C 347.773 347.155,347.538 347.372,347.535 347.637 M340.019 355.014 C 338.170 355.859,336.969 357.363,337.463 358.213 C 337.689 358.602,337.880 358.705,337.886 358.443 C 337.906 357.631,340.818 355.958,341.972 356.095 C 343.170 356.237,344.215 357.547,343.373 357.852 C 340.009 359.071,338.480 362.430,340.410 364.361 C 342.106 366.056,345.998 364.637,345.998 362.323 C 345.998 361.839,346.110 361.811,346.556 362.182 C 348.966 364.182,346.852 358.253,344.215 355.616 C 343.231 354.631,341.422 354.372,340.019 355.014 M345.221 360.824 C 345.232 363.059,342.627 364.559,341.204 363.135 C 340.871 362.802,340.598 362.469,340.598 362.396 C 340.598 361.668,341.396 360.763,342.852 359.839 C 344.780 358.617,345.210 358.796,345.221 360.824 M331.886 359.661 C 327.788 361.446,328.401 367.853,332.834 369.575 C 334.922 370.385,339.136 368.214,338.532 366.640 C 338.281 365.987,338.181 366.009,337.211 366.931 C 335.124 368.916,333.056 368.766,331.528 366.517 C 329.777 363.939,330.507 361.438,333.251 360.616 C 334.254 360.315,334.681 359.993,334.546 359.640 C 334.294 358.983,333.427 358.990,331.886 359.661 M317.143 364.073 C 316.762 364.315,317.452 365.795,319.974 370.142 C 323.857 376.835,323.419 376.239,324.149 375.830 C 324.680 375.533,318.522 363.745,317.840 363.752 C 317.734 363.753,317.420 363.897,317.143 364.073 M310.955 371.844 C 309.451 372.933,309.025 373.699,309.602 374.276 C 309.739 374.413,310.439 374.008,311.159 373.376 C 312.550 372.154,314.587 371.829,315.448 372.690 C 316.170 373.412,316.034 373.626,314.142 374.734 C 311.226 376.443,310.702 379.424,313.048 380.961 C 314.748 382.075,318.200 380.160,318.237 378.080 C 318.248 377.486,318.279 377.487,318.633 378.094 C 319.000 378.724,320.154 378.657,320.154 378.006 C 320.154 377.285,316.925 372.171,316.021 371.459 C 314.601 370.343,312.843 370.476,310.955 371.844 M327.540 371.413 C 327.006 371.751,327.534 373.393,328.172 373.379 C 329.073 373.360,329.475 372.680,329.052 371.891 C 328.572 370.993,328.325 370.915,327.540 371.413 M303.279 372.115 C 302.577 372.372,302.667 372.745,303.954 374.928 C 304.590 376.007,305.111 376.935,305.111 376.989 C 305.111 377.043,304.488 377.014,303.726 376.925 C 299.958 376.486,298.517 380.410,301.044 384.228 C 303.290 387.623,307.345 387.641,308.376 384.261 C 308.598 383.535,308.750 383.458,309.210 383.840 C 311.087 385.398,310.405 383.186,307.396 377.958 C 303.779 371.672,303.924 371.878,303.279 372.115 M317.296 375.892 C 317.857 378.129,316.152 380.280,314.204 379.791 C 312.140 379.273,312.682 377.283,315.333 375.645 C 316.834 374.718,317.007 374.739,317.296 375.892 M305.091 378.196 C 308.190 379.799,308.374 385.342,305.328 385.342 C 301.140 385.342,299.887 378.709,303.876 377.658 C 303.940 377.641,304.486 377.883,305.091 378.196 M292.067 382.984 C 291.667 383.232,291.765 384.005,292.552 386.805 C 293.095 388.735,293.539 390.450,293.539 390.616 C 293.539 390.781,292.274 389.659,290.728 388.123 C 286.730 384.152,285.974 384.612,287.458 390.114 C 288.656 394.550,288.588 394.585,285.493 391.128 C 282.936 388.273,282.873 388.231,281.967 388.808 C 281.375 389.185,287.783 396.151,288.709 396.137 C 290.148 396.115,290.208 395.495,289.134 391.710 C 287.821 387.085,287.800 387.100,291.043 390.368 C 293.747 393.093,294.099 393.301,295.016 392.720 C 295.429 392.458,295.288 391.508,294.286 387.808 C 292.927 382.793,292.805 382.528,292.067 382.984 M298.248 388.371 C 297.854 388.620,297.894 388.863,298.440 389.520 C 299.298 390.552,300.312 390.101,299.919 388.862 C 299.646 388.003,299.086 387.839,298.248 388.371 M279.163 390.406 C 278.787 390.617,278.552 390.909,278.642 391.056 C 278.731 391.202,279.253 392.964,279.802 394.971 L 280.801 398.622 278.000 395.839 C 276.459 394.309,275.007 393.057,274.773 393.057 C 273.613 393.057,273.537 394.081,274.459 397.312 C 275.773 401.916,275.722 401.956,272.690 398.709 C 270.167 396.007,268.852 395.310,268.852 396.674 C 268.852 397.868,275.674 403.940,276.462 403.448 C 277.265 402.946,277.137 402.151,275.202 395.656 C 275.035 395.095,276.026 395.857,278.031 397.831 C 280.851 400.606,281.182 400.823,281.855 400.338 C 282.935 399.559,280.284 389.776,279.163 390.406 M266.196 398.044 C 265.782 398.300,265.876 399.030,266.690 401.857 C 267.243 403.779,267.695 405.489,267.695 405.656 C 267.695 405.823,266.417 404.689,264.854 403.137 C 262.273 400.573,261.941 400.360,261.228 400.805 C 260.796 401.074,260.514 401.481,260.599 401.708 C 260.685 401.935,261.181 403.672,261.701 405.566 L 262.646 409.011 259.814 406.198 C 257.527 403.926,256.855 403.456,256.322 403.754 C 255.611 404.152,261.808 411.186,262.870 411.186 C 264.115 411.186,264.197 410.198,263.244 406.732 C 262.722 404.836,262.295 403.114,262.295 402.905 C 262.295 402.697,263.558 403.781,265.101 405.313 C 266.644 406.846,268.098 408.100,268.332 408.100 C 269.578 408.100,269.579 407.046,268.339 402.600 C 266.959 397.651,266.931 397.590,266.196 398.044 M252.266 403.028 C 252.266 403.577,255.036 416.083,255.459 417.442 C 255.506 417.594,255.785 417.570,256.078 417.388 C 256.777 416.953,253.558 402.314,252.763 402.314 C 252.490 402.314,252.266 402.636,252.266 403.028 M247.280 405.380 C 246.817 405.668,247.002 406.913,248.449 413.254 C 249.856 419.417,250.269 420.725,250.718 420.447 C 251.184 420.159,251.106 419.386,250.201 415.357 C 247.902 405.125,247.869 405.012,247.280 405.380 M241.582 412.978 C 241.114 413.168,241.681 415.051,242.203 415.037 C 242.949 415.018,243.450 414.283,243.217 413.549 C 242.963 412.750,242.522 412.596,241.582 412.978 M235.101 415.494 C 231.358 417.564,232.027 422.205,235.954 421.411 C 241.543 420.282,241.995 422.927,236.558 424.946 C 234.834 425.586,236.116 426.361,237.976 425.804 C 242.754 424.372,243.337 418.668,238.624 419.467 C 234.483 420.169,234.611 420.173,234.156 419.322 C 233.608 418.297,235.042 416.695,236.827 416.338 C 238.307 416.042,238.390 415.039,236.933 415.055 C 236.350 415.062,235.526 415.259,235.101 415.494 M245.229 418.987 C 244.615 419.450,244.615 419.530,245.238 420.326 C 246.247 421.615,247.518 420.662,246.533 419.356 C 245.983 418.628,245.783 418.571,245.229 418.987 M225.377 421.311 C 224.940 421.789,224.460 422.582,224.311 423.074 C 224.075 423.851,223.981 423.890,223.591 423.370 C 223.301 422.982,222.958 422.890,222.613 423.107 C 222.196 423.370,222.712 424.547,225.035 428.634 C 228.719 435.113,228.787 435.206,229.625 434.884 C 230.049 434.722,230.177 434.463,229.970 434.188 C 229.789 433.948,229.180 432.944,228.616 431.956 L 227.591 430.162 229.110 430.365 C 232.284 430.791,233.958 427.344,232.225 423.948 C 230.553 420.670,227.160 419.363,225.377 421.311 M229.113 422.367 C 232.083 423.957,232.008 429.315,229.015 429.315 C 227.255 429.315,224.879 426.444,224.879 424.316 C 224.879 422.540,227.329 421.413,229.113 422.367 M215.148 424.342 C 214.553 424.675,214.554 424.782,215.162 425.858 C 215.708 426.826,215.728 427.071,215.283 427.351 C 214.599 427.782,215.065 428.544,216.013 428.544 C 216.510 428.544,217.239 429.390,218.285 431.180 C 220.472 434.926,222.559 435.696,224.426 433.447 C 225.194 432.522,224.319 431.824,223.293 432.543 C 221.783 433.600,221.252 433.299,219.510 430.390 C 217.930 427.752,217.881 427.582,218.565 427.128 C 220.343 425.947,220.614 425.638,220.303 425.146 C 220.051 424.747,219.695 424.813,218.588 425.466 L 217.191 426.291 216.489 425.137 C 215.944 424.241,215.646 424.064,215.148 424.342 M208.566 428.014 C 208.433 428.147,208.592 428.775,208.920 429.409 C 209.320 430.182,209.388 430.689,209.128 430.950 C 208.548 431.529,209.013 432.342,209.807 432.135 C 210.329 431.998,210.807 432.506,211.754 434.203 C 214.138 438.475,215.880 439.145,218.620 436.843 C 219.348 436.232,218.101 435.582,217.146 436.075 C 215.366 436.996,214.966 436.780,213.325 434.018 C 211.450 430.862,211.464 431.031,213.018 430.241 C 214.610 429.431,214.524 429.534,214.235 428.781 C 214.009 428.191,213.874 428.203,212.661 428.918 C 210.974 429.914,210.823 429.903,210.292 428.737 C 209.874 427.819,209.089 427.491,208.566 428.014 M198.361 432.657 C 197.603 432.962,197.705 433.208,200.828 438.645 C 204.216 444.542,204.631 445.090,205.244 444.477 C 205.557 444.164,205.247 443.323,204.089 441.340 C 202.210 438.122,202.068 436.660,203.524 435.515 C 205.461 433.991,206.323 434.603,209.024 439.422 C 209.869 440.929,210.433 441.553,210.818 441.406 C 211.644 441.089,211.559 440.830,209.467 437.288 C 206.563 432.371,203.568 431.788,201.907 435.817 C 201.504 436.793,201.483 436.778,200.239 434.603 C 199.546 433.392,198.948 432.415,198.911 432.432 C 198.873 432.448,198.626 432.550,198.361 432.657 " stroke="none" fill="#252525" fill-rule="evenodd"></path><path id="path1" d="M103.568 65.362 L 7.907 120.633 7.907 231.663 L 7.907 342.692 103.568 397.958 C 164.601 433.220,199.508 453.174,200.000 453.085 C 200.424 453.008,243.732 428.129,296.239 397.798 L 391.707 342.651 391.707 231.662 L 391.707 120.672 295.888 65.350 C 243.187 34.924,199.880 10.043,199.649 10.060 C 199.418 10.077,156.181 34.963,103.568 65.362 M119.185 200.868 C 119.181 223.434,118.975 225.912,116.492 233.397 C 115.548 236.243,113.305 241.951,113.019 242.237 C 112.912 242.343,112.044 243.984,111.090 245.883 C 106.500 255.012,98.090 266.065,88.330 275.796 C 85.457 278.660,82.590 281.418,81.958 281.926 C 81.327 282.433,80.523 283.096,80.172 283.399 C 79.054 284.363,69.191 275.013,61.369 265.574 C 60.490 264.513,59.557 263.391,59.297 263.080 C 57.194 260.569,53.203 254.817,51.129 251.306 C 49.748 248.970,48.483 246.885,48.317 246.673 C 47.667 245.843,44.350 238.400,43.246 235.294 C 40.103 226.446,39.737 222.703,39.733 199.325 L 39.730 180.135 79.460 180.135 L 119.190 180.135 119.185 200.868 M44.468 203.954 C 44.634 226.831,44.823 228.097,49.655 238.766 C 51.120 242.001,53.668 247.035,53.950 247.252 C 54.089 247.358,54.883 248.573,55.715 249.952 C 56.547 251.331,57.331 252.546,57.456 252.652 C 57.582 252.758,58.013 253.361,58.416 253.992 C 58.818 254.623,59.293 255.317,59.471 255.535 C 59.649 255.752,60.527 256.885,61.421 258.052 C 62.316 259.219,63.149 260.260,63.272 260.366 C 63.396 260.473,63.790 260.988,64.149 261.512 C 66.010 264.232,78.769 277.338,79.556 277.338 C 80.119 277.338,82.435 275.094,89.890 267.324 C 98.322 258.535,107.065 245.187,110.996 235.101 C 114.410 226.341,114.560 225.005,114.561 203.375 L 114.561 185.149 79.446 185.149 L 44.331 185.149 44.468 203.954 M70.187 194.480 C 70.908 195.253,70.975 195.825,70.982 201.326 C 70.994 209.178,71.964 211.278,76.482 213.225 C 77.071 213.479,77.913 214.296,78.352 215.040 C 79.355 216.740,80.119 216.758,80.812 215.097 C 81.167 214.248,81.792 213.626,82.625 213.293 C 87.232 211.450,88.332 209.156,88.332 201.396 C 88.332 192.957,88.553 192.737,94.271 195.494 C 99.406 197.969,101.954 198.490,105.369 197.762 C 108.727 197.047,109.452 198.888,107.011 201.929 L 106.082 203.086 101.835 203.042 C 97.626 202.999,97.589 203.007,97.589 203.903 C 97.589 205.113,98.754 205.399,103.472 205.349 L 107.232 205.309 107.232 206.402 C 107.232 207.004,106.939 208.111,106.580 208.864 C 105.580 210.961,103.843 211.270,98.071 210.380 C 96.949 210.207,96.818 210.284,96.818 211.122 C 96.818 212.431,98.510 213.041,102.257 213.082 L 105.303 213.115 105.303 214.532 C 105.304 217.937,101.986 219.238,97.090 217.753 C 94.321 216.912,93.821 218.811,96.505 219.975 C 99.352 221.208,99.988 221.408,101.079 221.408 C 102.380 221.408,102.530 221.999,101.659 223.684 C 100.233 226.442,97.938 226.651,93.479 224.431 C 92.508 223.947,91.803 224.268,91.804 225.192 C 91.805 225.851,94.765 227.981,96.219 228.368 C 97.432 228.691,97.366 229.683,96.027 231.207 C 94.437 233.018,93.202 233.018,90.472 231.206 C 87.046 228.931,86.341 230.713,89.440 233.813 L 91.320 235.693 90.134 236.691 C 88.649 237.941,86.441 237.793,85.108 236.354 L 84.240 235.418 83.594 236.995 C 83.239 237.863,82.838 239.543,82.702 240.728 L 82.454 242.883 84.210 244.613 C 85.954 246.332,89.412 248.409,90.531 248.409 C 92.026 248.409,90.252 251.471,88.285 252.285 C 87.146 252.757,82.932 251.160,82.932 250.256 C 82.932 250.089,82.671 249.952,82.353 249.952 C 80.193 249.952,82.936 253.918,85.703 254.796 C 87.719 255.436,85.100 259.003,82.835 258.703 L 81.389 258.511 81.389 260.826 C 81.389 263.125,80.534 265.384,79.666 265.378 C 78.696 265.372,77.531 262.824,77.531 260.709 L 77.531 258.593 76.278 258.739 C 74.170 258.985,71.731 255.390,73.602 254.796 C 76.369 253.918,79.112 249.952,76.953 249.952 C 76.635 249.952,76.374 250.089,76.374 250.256 C 76.374 251.184,72.158 252.757,70.979 252.268 C 68.958 251.431,67.265 248.409,68.817 248.409 C 69.899 248.409,73.381 246.304,75.097 244.613 C 77.075 242.663,77.190 241.359,75.744 237.289 L 75.076 235.407 74.203 236.349 C 72.852 237.806,70.660 237.943,69.141 236.665 L 67.924 235.641 69.835 233.770 C 72.977 230.693,72.158 228.768,68.748 231.217 C 66.206 233.044,64.889 233.041,63.278 231.207 C 61.940 229.683,61.873 228.691,63.087 228.368 C 64.540 227.981,67.501 225.851,67.502 225.192 C 67.503 224.268,66.797 223.947,65.826 224.431 C 61.303 226.684,59.098 226.491,57.664 223.718 C 56.775 221.999,56.919 221.408,58.227 221.408 C 59.318 221.408,59.954 221.208,62.801 219.975 C 65.484 218.811,64.985 216.912,62.216 217.753 C 57.241 219.262,53.616 217.683,53.616 214.008 C 53.616 213.147,53.734 213.114,56.829 213.093 C 60.707 213.066,62.488 212.451,62.488 211.139 C 62.488 210.635,62.414 210.222,62.323 210.222 C 62.232 210.222,60.850 210.404,59.251 210.626 C 54.324 211.311,52.073 209.992,52.073 206.419 L 52.073 205.343 56.269 205.361 C 60.645 205.381,61.716 205.048,61.716 203.670 C 61.716 203.070,61.267 203.003,57.516 203.042 C 52.712 203.092,51.991 202.753,51.280 200.113 C 50.558 197.429,50.900 197.117,53.882 197.742 C 57.307 198.460,59.969 197.923,64.995 195.501 C 69.483 193.338,69.179 193.398,70.187 194.480 M86.783 195.468 C 86.772 198.237,85.106 201.736,83.798 201.736 C 83.241 201.736,83.282 203.447,83.946 208.004 C 84.156 209.446,84.152 209.450,82.773 209.450 C 82.011 209.450,81.389 209.277,81.389 209.065 C 81.389 208.090,80.676 208.822,80.450 210.029 C 80.303 210.813,79.969 211.379,79.653 211.379 C 79.337 211.379,79.003 210.813,78.856 210.029 C 78.604 208.687,78.180 208.326,77.724 209.065 C 77.377 209.627,75.216 209.544,75.222 208.968 C 75.224 208.703,75.569 207.097,75.988 205.400 C 76.408 203.703,76.753 202.184,76.755 202.025 C 76.764 201.463,73.918 201.744,73.222 202.374 C 72.548 202.985,72.517 202.928,72.517 201.082 C 72.517 197.705,73.663 195.950,75.868 195.950 C 76.206 195.950,76.698 195.654,76.963 195.292 C 77.347 194.767,78.332 194.585,81.827 194.390 C 84.238 194.256,86.340 194.118,86.500 194.084 C 86.659 194.049,86.786 194.672,86.783 195.468 M78.689 197.107 C 78.689 197.614,78.946 197.878,79.437 197.878 C 80.400 197.878,80.874 197.121,80.184 196.684 C 79.296 196.122,78.689 196.294,78.689 197.107 M258.328 199.652 C 270.411 203.689,271.113 224.305,259.358 229.915 C 254.341 232.310,246.710 230.757,243.868 226.764 C 243.598 226.385,243.142 225.839,242.853 225.551 C 240.634 223.331,239.210 216.863,239.902 212.137 C 241.331 202.360,249.620 196.743,258.328 199.652 M319.094 199.990 L 320.926 200.651 320.926 204.092 L 320.926 207.532 319.574 206.967 C 313.682 204.506,307.027 205.190,307.045 208.257 C 307.056 210.100,307.990 210.726,312.290 211.775 C 315.516 212.562,318.506 213.922,319.472 215.041 C 319.839 215.467,320.319 216.027,320.539 216.287 C 323.234 219.479,321.909 226.473,318.120 229.049 C 315.274 230.984,308.809 231.814,305.265 230.699 C 304.650 230.506,303.322 230.121,302.314 229.844 L 300.482 229.340 300.482 225.952 C 300.482 224.089,300.612 222.568,300.771 222.571 C 300.931 222.574,301.842 222.854,302.797 223.194 C 309.202 225.473,313.378 225.334,314.734 222.796 C 315.699 220.992,313.281 218.397,310.584 218.341 C 308.057 218.288,304.290 216.660,302.419 214.811 C 297.457 209.908,300.399 201.118,307.618 199.277 C 309.326 198.842,317.279 199.336,319.094 199.990 M148.891 200.026 C 152.498 201.258,156.991 205.617,156.991 207.884 C 156.991 208.236,157.208 208.741,157.473 209.006 C 158.129 209.662,158.143 219.757,157.491 221.059 C 157.235 221.569,156.781 222.594,156.481 223.337 C 154.957 227.111,150.798 229.920,145.677 230.632 C 141.392 231.228,133.488 231.188,133.262 230.569 C 133.165 230.304,133.041 223.187,132.985 214.754 L 132.883 199.421 140.019 199.427 C 145.418 199.431,147.578 199.577,148.891 200.026 M176.083 200.289 C 176.594 202.112,181.113 216.132,183.464 223.188 C 184.815 227.244,185.921 230.672,185.921 230.807 C 185.921 231.303,178.960 231.071,178.802 230.569 C 178.719 230.304,178.276 228.828,177.818 227.290 L 176.985 224.494 172.050 224.494 C 166.462 224.494,166.585 224.432,165.863 227.580 C 165.054 231.101,165.118 231.051,161.414 231.051 C 159.061 231.051,158.147 230.916,158.145 230.569 C 158.141 230.061,161.217 220.418,165.333 208.035 C 166.685 203.968,167.686 200.367,167.557 200.031 C 167.353 199.498,167.858 199.421,171.582 199.421 C 175.669 199.421,175.850 199.456,176.083 200.289 M195.178 211.765 L 195.178 224.108 201.543 224.108 L 207.907 224.108 207.907 227.580 L 207.907 231.051 198.252 231.051 C 190.879 231.051,188.555 230.937,188.421 230.569 C 188.324 230.304,188.200 223.187,188.144 214.754 L 188.042 199.421 191.610 199.421 L 195.178 199.421 195.178 211.765 M218.322 205.400 L 218.322 211.379 223.722 211.379 L 229.122 211.379 229.122 206.390 C 229.122 203.645,228.953 200.955,228.746 200.411 L 228.370 199.421 232.218 199.421 L 236.066 199.421 236.066 215.043 L 236.066 230.665 232.594 230.665 L 229.122 230.665 229.122 224.494 L 229.122 218.322 223.722 218.322 L 218.322 218.322 218.322 224.494 L 218.322 230.665 214.851 230.665 L 211.379 230.665 211.379 216.033 C 211.379 207.459,211.223 200.991,211.003 200.411 L 210.627 199.421 214.474 199.421 L 218.322 199.421 218.322 205.400 M278.498 209.354 C 278.499 214.817,278.671 219.904,278.881 220.658 C 280.189 225.367,286.617 225.666,288.570 221.109 C 289.398 219.179,289.698 200.873,288.910 200.386 C 287.837 199.722,288.867 199.421,292.210 199.421 L 295.895 199.421 295.778 211.090 C 295.648 223.959,295.573 224.384,292.870 227.433 C 288.649 232.195,280.194 232.470,275.403 228.003 C 272.432 225.232,271.800 223.011,271.665 214.851 C 271.599 210.926,271.504 205.848,271.453 203.568 L 271.360 199.420 274.928 199.421 L 278.496 199.421 278.498 209.354 M333.563 215.140 L 333.462 230.858 330.087 230.970 L 326.712 231.081 326.712 216.241 C 326.712 207.532,326.556 200.991,326.335 200.411 L 325.959 199.421 329.811 199.421 L 333.663 199.421 333.563 215.140 M359.499 202.700 L 359.499 205.979 352.748 205.979 L 345.998 205.979 345.998 208.861 L 345.998 211.744 351.688 211.851 L 357.377 211.958 357.490 214.947 L 357.602 217.936 351.800 217.936 L 345.998 217.936 345.998 221.022 L 345.998 224.108 352.748 224.108 L 359.499 224.108 359.499 227.586 L 359.499 231.064 349.373 230.961 L 339.248 230.858 339.055 215.622 C 338.949 207.242,338.722 200.169,338.550 199.904 C 338.303 199.522,340.455 199.421,348.868 199.421 L 359.499 199.421 359.499 202.700 M252.073 205.944 C 244.900 207.731,245.046 222.799,252.251 224.240 C 257.135 225.217,260.752 221.197,260.752 214.794 C 260.752 210.599,258.072 205.989,255.625 205.974 C 255.157 205.971,254.426 205.898,254.002 205.812 C 253.578 205.726,252.710 205.785,252.073 205.944 M140.019 215.043 L 140.019 224.108 143.124 224.108 C 148.842 224.108,151.171 221.436,151.194 214.851 C 151.215 208.764,148.626 205.979,142.950 205.979 L 140.019 205.979 140.019 215.043 M171.150 209.919 C 169.462 215.914,168.962 217.763,168.956 218.033 C 168.952 218.192,170.338 218.322,172.035 218.322 C 173.732 218.322,175.121 218.239,175.121 218.137 C 175.121 218.035,174.868 217.298,174.559 216.498 C 174.250 215.698,173.723 213.915,173.388 212.536 C 173.054 211.157,172.625 209.682,172.435 209.257 C 172.246 208.833,172.033 208.263,171.962 207.990 C 171.891 207.717,171.525 208.585,171.150 209.919 M291.132 238.078 C 295.211 239.987,297.189 244.634,294.021 244.863 C 292.597 244.966,292.382 244.880,292.382 244.206 C 292.382 239.151,283.526 239.044,282.856 244.092 C 282.564 246.295,287.007 249.180,290.694 249.180 C 291.203 249.180,292.576 249.871,293.821 250.754 C 296.740 252.824,296.504 259.334,293.426 261.682 C 288.614 265.352,280.222 262.701,279.187 257.184 C 278.995 256.159,279.044 256.123,280.671 256.123 C 282.081 256.123,282.353 256.245,282.353 256.875 C 282.353 260.720,290.693 261.692,292.568 258.065 C 294.260 254.794,291.434 252.427,284.051 250.930 C 282.453 250.606,280.587 248.585,280.067 246.616 C 278.418 240.374,285.071 235.241,291.132 238.078 M136.548 247.868 C 136.755 258.711,136.753 258.697,138.911 259.813 C 140.741 260.760,143.136 260.526,144.663 259.252 L 145.998 258.138 146.112 247.873 L 146.227 237.608 147.770 237.608 L 149.312 237.608 149.198 247.927 C 149.054 260.905,148.420 262.496,143.081 263.265 C 135.105 264.413,133.088 261.004,133.081 246.362 L 133.076 237.564 134.716 237.683 L 136.355 237.801 136.548 247.868 M164.964 240.701 C 168.012 245.758,172.329 253.093,173.473 255.159 L 174.542 257.088 174.645 247.348 L 174.748 237.608 176.091 237.608 L 177.435 237.608 177.435 250.338 L 177.435 263.067 176.139 263.067 C 174.960 263.067,174.730 262.865,173.611 260.849 C 172.934 259.629,171.762 257.589,171.005 256.316 C 170.249 255.043,168.654 252.353,167.459 250.338 C 166.265 248.322,164.897 246.085,164.418 245.366 L 163.549 244.058 163.549 253.562 L 163.549 263.067 162.006 263.067 L 160.463 263.067 160.463 250.338 L 160.463 237.608 161.782 237.608 C 163.018 237.608,163.216 237.801,164.964 240.701 M192.478 250.338 L 192.478 263.067 191.128 263.067 L 189.778 263.067 189.778 250.338 L 189.778 237.608 191.128 237.608 L 192.478 237.608 192.478 250.338 M205.062 238.284 C 205.180 238.655,205.426 239.306,205.607 239.730 C 205.789 240.154,206.310 241.803,206.765 243.394 C 207.221 244.986,207.995 247.589,208.486 249.180 C 208.977 250.771,209.753 253.375,210.210 254.966 C 210.666 256.557,211.135 258.120,211.251 258.438 C 211.368 258.756,211.979 257.367,212.610 255.352 C 214.428 249.545,215.826 245.026,216.993 241.176 L 218.076 237.608 219.590 237.608 C 220.880 237.608,221.064 237.708,220.829 238.284 C 220.678 238.655,220.216 240.174,219.803 241.659 C 219.390 243.144,218.895 244.706,218.703 245.130 C 218.511 245.554,218.157 246.683,217.915 247.637 C 217.673 248.592,217.164 250.328,216.782 251.495 C 216.149 253.432,214.115 260.074,213.498 262.218 C 212.968 264.063,209.760 263.269,209.132 261.138 C 208.851 260.183,208.221 258.100,207.731 256.509 C 205.816 250.281,202.798 240.246,202.309 238.476 C 201.993 237.333,204.697 237.143,205.062 238.284 M243.009 239.151 L 243.009 240.694 237.608 240.694 L 232.208 240.694 232.208 244.744 L 232.208 248.795 237.030 248.795 L 241.851 248.795 241.851 250.338 L 241.851 251.880 237.030 251.880 L 232.208 251.880 232.208 255.931 L 232.208 259.981 237.801 259.981 L 243.394 259.981 243.394 261.524 L 243.394 263.067 236.258 263.067 L 229.122 263.067 229.122 250.338 L 229.122 237.608 236.066 237.608 L 243.009 237.608 243.009 239.151 M266.148 238.394 C 270.704 241.073,270.780 248.661,266.276 251.048 C 265.402 251.511,265.479 252.667,266.523 254.773 C 266.935 255.604,268.677 260.257,269.239 262.027 C 269.581 263.105,269.577 263.108,267.964 262.991 C 266.448 262.881,266.314 262.775,265.858 261.331 C 265.590 260.482,265.205 259.441,265.003 259.016 C 264.648 258.269,263.209 254.311,262.795 252.941 C 262.625 252.378,262.120 252.266,259.743 252.266 L 256.895 252.266 256.895 257.666 L 256.895 263.067 255.352 263.067 L 253.809 263.067 253.809 250.295 L 253.809 237.524 259.499 237.677 C 263.569 237.786,265.461 237.990,266.148 238.394 M309.648 250.434 L 309.750 263.067 308.202 263.067 L 306.654 263.067 306.654 250.314 L 306.654 237.562 308.100 237.682 L 309.547 237.801 309.648 250.434 M335.583 239.151 L 335.583 240.694 332.305 240.694 L 329.026 240.694 329.026 251.880 L 329.026 263.067 327.483 263.067 L 325.940 263.067 325.940 251.880 L 325.940 240.694 322.469 240.694 L 318.997 240.694 318.997 239.151 L 318.997 237.608 327.290 237.608 L 335.583 237.608 335.583 239.151 M348.453 243.390 L 351.354 249.171 354.173 243.391 L 356.991 237.611 358.480 237.610 C 359.912 237.609,360.343 239.033,359.179 239.919 C 359.036 240.027,357.571 242.806,355.921 246.095 L 352.923 252.073 352.932 257.570 L 352.941 263.067 351.398 263.067 L 349.855 263.067 349.855 257.690 L 349.855 252.314 346.191 245.200 C 341.930 236.929,342.123 237.608,344.039 237.608 L 345.552 237.608 348.453 243.390 M256.895 244.937 L 256.895 249.180 260.155 249.180 C 265.186 249.180,266.926 247.712,266.361 243.942 C 265.971 241.340,264.786 240.694,260.403 240.694 L 256.895 240.694 256.895 244.937 M348.888 347.637 C 352.116 361.342,352.228 361.973,351.517 362.493 C 350.679 363.106,350.929 363.822,348.875 354.928 C 347.692 349.803,347.331 347.601,347.618 347.255 C 348.218 346.532,348.659 346.665,348.888 347.637 M344.145 355.374 C 346.186 357.265,348.507 361.874,347.712 362.455 C 347.241 362.799,346.875 362.844,346.619 362.588 C 346.364 362.333,346.081 362.569,345.777 363.293 C 344.663 365.942,341.028 366.180,339.670 363.692 C 338.441 361.441,339.253 360.047,343.145 357.729 C 343.802 357.338,343.783 357.267,342.854 356.658 C 341.664 355.879,340.238 356.271,338.607 357.826 C 337.612 358.775,337.569 358.782,337.177 358.051 C 336.847 357.434,336.964 357.120,337.818 356.328 C 340.095 354.215,342.503 353.852,344.145 355.374 M334.741 359.981 C 334.836 360.486,334.611 360.656,333.846 360.656 C 332.726 360.656,330.569 362.524,330.569 363.494 C 330.569 367.309,334.555 369.337,337.046 366.789 C 338.434 365.370,339.602 366.260,338.471 367.875 C 335.038 372.777,326.648 367.479,329.229 362.038 C 330.397 359.579,334.383 358.090,334.741 359.981 M343.491 359.563 C 341.110 360.880,340.325 362.591,341.752 363.354 C 343.477 364.277,345.693 361.960,345.043 359.912 C 344.755 359.005,344.573 358.964,343.491 359.563 M321.590 369.652 C 324.633 374.920,324.844 375.418,324.269 375.993 C 323.925 376.337,323.571 376.541,323.481 376.448 C 322.606 375.538,316.699 364.641,316.857 364.229 C 317.343 362.963,318.473 364.259,321.590 369.652 M315.718 371.014 C 317.319 372.000,320.849 377.967,320.109 378.435 C 319.351 378.916,318.707 378.863,318.481 378.303 C 318.374 378.038,318.273 378.196,318.256 378.654 C 318.175 380.872,314.063 382.337,312.450 380.723 C 310.535 378.809,311.108 376.671,314.070 374.681 C 315.772 373.536,315.834 373.435,315.186 372.848 C 313.980 371.757,311.753 372.452,310.363 374.353 C 309.860 375.042,309.826 375.039,309.414 374.269 C 308.278 372.146,313.325 369.541,315.718 371.014 M329.180 371.767 C 329.917 373.192,328.529 374.424,327.608 373.164 C 326.817 372.082,327.273 370.867,328.534 370.696 C 328.582 370.690,328.872 371.172,329.180 371.767 M307.500 377.739 C 310.480 382.952,310.785 383.660,310.232 384.082 C 309.775 384.432,309.474 384.445,309.096 384.131 C 308.703 383.805,308.582 383.856,308.582 384.349 C 308.582 386.358,305.009 387.553,302.838 386.270 C 298.318 383.600,298.786 376.008,303.438 376.551 L 304.710 376.700 303.527 374.603 C 302.591 372.944,302.452 372.439,302.860 372.180 C 303.861 371.546,304.179 371.927,307.500 377.739 M314.628 376.307 C 312.634 377.662,312.681 379.364,314.712 379.364 C 316.395 379.364,317.631 377.890,317.244 376.346 C 316.921 375.059,316.474 375.053,314.628 376.307 M302.565 378.309 C 300.960 379.380,301.155 381.976,302.989 383.955 C 304.719 385.822,307.425 384.992,307.425 382.596 C 307.425 379.694,304.437 377.059,302.565 378.309 M294.286 387.108 C 294.962 389.564,295.598 391.789,295.699 392.053 C 295.800 392.318,295.422 392.744,294.858 393.001 C 293.874 393.449,293.720 393.347,291.011 390.466 L 288.189 387.464 289.104 390.844 C 289.607 392.703,290.118 394.538,290.240 394.923 C 290.392 395.400,290.178 395.774,289.567 396.101 C 288.740 396.543,282.244 390.865,281.646 389.177 C 281.114 387.676,283.080 388.591,285.512 390.978 C 287.108 392.545,288.130 393.319,288.003 392.864 C 287.428 390.818,286.210 386.312,286.210 386.232 C 286.210 384.738,288.098 385.512,290.656 388.052 L 293.463 390.840 292.490 387.334 C 291.510 383.803,291.516 382.642,292.515 382.642 C 292.879 382.642,293.461 384.110,294.286 387.108 M300.054 388.682 C 300.802 390.325,298.987 391.115,298.133 389.519 C 297.761 388.826,297.805 388.594,298.386 388.169 C 299.355 387.460,299.521 387.511,300.054 388.682 M280.377 391.225 C 282.361 397.476,282.802 399.771,282.115 400.274 C 281.113 401.006,281.104 401.001,278.275 398.071 C 275.125 394.808,275.193 394.768,276.404 399.187 C 277.388 402.780,277.302 403.857,276.030 403.857 C 274.906 403.857,268.403 396.676,269.044 396.144 C 269.589 395.692,270.026 395.983,272.508 398.448 L 275.348 401.269 274.424 398.031 C 272.718 392.051,273.618 391.289,277.563 395.376 C 280.711 398.637,280.651 398.675,279.388 394.252 C 278.527 391.235,278.453 390.621,278.913 390.329 C 279.777 389.782,279.953 389.890,280.377 391.225 M268.428 402.139 C 270.436 409.291,269.805 409.963,265.289 405.490 L 262.303 402.534 263.302 406.185 C 263.852 408.193,264.374 409.954,264.462 410.099 C 264.550 410.244,264.233 410.635,263.756 410.968 C 262.564 411.804,254.887 404.483,256.047 403.617 C 256.616 403.193,257.073 403.492,259.539 405.904 C 261.347 407.673,262.285 408.377,262.127 407.846 C 259.652 399.526,260.363 398.166,264.709 402.909 C 267.534 405.992,267.593 405.948,266.415 401.648 C 265.552 398.499,265.525 398.168,266.101 397.792 C 266.995 397.207,267.096 397.396,268.428 402.139 M253.423 402.094 C 253.423 402.185,254.197 405.607,255.142 409.699 C 256.434 415.290,256.746 417.214,256.396 417.436 C 255.324 418.117,255.469 418.515,253.213 408.726 C 252.058 403.717,251.896 402.542,252.323 402.271 C 252.886 401.914,253.423 401.828,253.423 402.094 M248.173 405.689 C 249.552 410.307,251.468 420.223,251.034 420.498 C 250.240 421.002,249.981 420.892,249.768 419.961 C 249.658 419.484,248.872 416.067,248.021 412.368 C 246.819 407.143,246.582 405.574,246.959 405.334 C 247.690 404.870,247.951 404.947,248.173 405.689 M243.347 413.357 C 243.601 413.915,243.759 414.398,243.698 414.431 C 243.637 414.464,243.295 414.713,242.938 414.985 C 242.382 415.410,242.192 415.332,241.609 414.444 C 240.957 413.448,240.959 413.386,241.657 412.875 C 242.654 412.146,242.816 412.193,243.347 413.357 M237.994 414.819 C 237.994 414.908,238.093 415.238,238.214 415.554 C 238.369 415.957,238.089 416.203,237.268 416.383 C 235.742 416.719,234.137 418.002,234.137 418.887 C 234.137 419.902,234.894 420.050,237.265 419.498 C 240.158 418.826,242.237 419.897,242.237 422.059 C 242.237 423.888,238.008 426.761,236.287 426.101 C 235.201 425.684,235.623 424.783,237.028 424.519 C 239.958 423.970,241.533 420.803,238.715 421.127 C 238.213 421.185,236.918 421.335,235.838 421.459 C 232.866 421.803,231.207 419.345,232.838 417.016 C 233.715 415.764,237.994 413.940,237.994 414.819 M246.795 419.317 C 247.334 420.180,246.857 421.215,245.920 421.215 C 245.085 421.215,244.294 419.300,244.955 418.881 C 245.814 418.338,246.249 418.441,246.795 419.317 M229.507 420.636 C 234.545 423.241,233.908 431.937,228.778 430.595 C 227.965 430.383,227.981 430.466,229.127 432.409 C 230.295 434.389,230.023 436.574,228.771 435.278 C 227.479 433.939,221.837 423.354,222.270 423.079 C 223.001 422.616,223.722 422.695,223.723 423.240 C 223.723 423.505,224.027 423.117,224.398 422.378 C 225.482 420.215,227.418 419.556,229.507 420.636 M226.122 422.587 C 223.821 424.199,226.791 429.752,229.566 429.026 C 231.853 428.428,231.799 424.937,229.472 422.979 C 228.112 421.836,227.327 421.743,226.122 422.587 M216.609 424.948 L 217.432 425.980 218.760 425.159 C 220.054 424.360,220.100 424.357,220.544 425.067 C 220.939 425.700,220.824 425.904,219.660 426.623 C 218.032 427.629,218.030 427.369,219.691 430.339 C 221.086 432.833,222.148 433.436,223.233 432.350 C 223.790 431.793,224.879 432.195,224.879 432.958 C 224.879 433.674,222.948 434.716,221.620 434.716 C 220.361 434.716,219.523 433.859,217.906 430.918 C 216.896 429.081,216.449 428.597,215.918 428.765 C 215.100 429.025,214.541 427.928,215.170 427.299 C 215.476 426.993,215.411 426.570,214.936 425.765 C 214.360 424.790,214.350 424.609,214.854 424.290 C 215.658 423.782,215.689 423.794,216.609 424.948 M210.407 428.529 L 210.998 429.672 212.333 428.885 C 213.067 428.451,213.847 428.208,214.066 428.343 C 214.811 428.804,214.468 429.679,213.308 430.280 C 211.875 431.020,211.876 431.155,213.327 433.726 C 214.947 436.596,215.294 436.834,216.763 436.074 C 217.421 435.734,218.127 435.560,218.333 435.687 C 219.160 436.197,218.619 437.083,217.001 437.869 C 214.782 438.947,213.976 438.469,211.886 434.832 C 210.836 433.003,210.153 432.210,209.626 432.209 C 209.060 432.209,208.889 431.967,208.942 431.244 C 208.980 430.714,208.822 429.786,208.591 429.183 C 208.258 428.316,208.284 428.015,208.714 427.743 C 209.561 427.206,209.774 427.305,210.407 428.529 M200.329 434.361 L 201.429 436.320 201.976 435.265 C 203.207 432.893,205.897 432.397,207.575 434.233 C 209.433 436.268,211.911 440.943,211.327 441.313 C 210.387 441.909,210.043 441.688,209.075 439.863 C 206.597 435.192,205.024 434.128,203.239 435.913 C 202.179 436.973,202.408 438.069,204.404 441.493 C 205.827 443.935,205.905 444.208,205.313 444.652 C 204.448 445.299,204.425 445.270,200.601 438.621 C 198.120 434.307,197.528 433.002,197.934 432.744 C 198.875 432.148,199.214 432.377,200.329 434.361 " stroke="none" fill="#fbf3b3" fill-rule="evenodd"></path><path id="path2" d="M39.733 199.325 C 39.737 222.703,40.103 226.446,43.246 235.294 C 44.350 238.400,47.667 245.843,48.317 246.673 C 48.483 246.885,49.748 248.970,51.129 251.306 C 53.203 254.817,57.194 260.569,59.297 263.080 C 59.557 263.391,60.490 264.513,61.369 265.574 C 69.191 275.013,79.054 284.363,80.172 283.399 C 80.523 283.096,81.327 282.433,81.958 281.926 C 86.050 278.638,97.391 266.379,101.899 260.371 C 105.377 255.737,109.035 249.969,111.090 245.883 C 112.044 243.984,112.912 242.343,113.019 242.237 C 113.305 241.951,115.548 236.243,116.492 233.397 C 118.975 225.912,119.181 223.434,119.185 200.868 L 119.190 180.135 79.460 180.135 L 39.730 180.135 39.733 199.325 M114.561 203.375 C 114.560 225.005,114.410 226.341,110.996 235.101 C 107.065 245.187,98.322 258.535,89.890 267.324 C 82.435 275.094,80.119 277.338,79.556 277.338 C 78.769 277.338,66.010 264.232,64.149 261.512 C 63.790 260.988,63.396 260.473,63.272 260.366 C 63.149 260.260,62.316 259.219,61.421 258.052 C 60.527 256.885,59.649 255.752,59.471 255.535 C 59.293 255.317,58.818 254.623,58.416 253.992 C 58.013 253.361,57.582 252.758,57.456 252.652 C 57.331 252.546,56.547 251.331,55.715 249.952 C 54.883 248.573,54.089 247.358,53.950 247.252 C 53.668 247.035,51.120 242.001,49.655 238.766 C 44.823 228.097,44.634 226.831,44.468 203.954 L 44.331 185.149 79.446 185.149 L 114.561 185.149 114.561 203.375 " stroke="none" fill="#fcd405" fill-rule="evenodd"></path><path id="path3" d="M82.353 194.407 L 78.496 194.643 82.234 194.718 C 84.394 194.761,86.072 194.630,86.210 194.407 C 86.341 194.195,86.395 194.055,86.329 194.096 C 86.264 194.137,84.474 194.277,82.353 194.407 M70.740 200.386 C 70.741 203.356,70.802 204.520,70.875 202.973 C 70.948 201.425,70.948 198.995,70.874 197.572 C 70.800 196.150,70.740 197.416,70.740 200.386 M88.484 200.386 C 88.485 203.356,88.545 204.520,88.618 202.973 C 88.692 201.425,88.691 198.995,88.617 197.572 C 88.543 196.150,88.483 197.416,88.484 200.386 M218.022 205.497 L 217.936 211.765 223.626 211.680 L 229.315 211.595 223.828 211.476 L 218.342 211.358 218.225 205.293 L 218.108 199.229 218.022 205.497 M235.856 215.043 C 235.856 223.742,235.907 227.355,235.969 223.073 C 236.031 218.791,236.031 211.675,235.969 207.258 C 235.907 202.842,235.856 206.345,235.856 215.043 M188.421 215.815 L 188.428 230.858 198.168 230.868 L 207.908 230.879 198.269 230.765 L 188.630 230.652 188.522 215.712 L 188.414 200.771 188.421 215.815 M56.027 210.873 C 56.398 210.970,57.006 210.970,57.377 210.873 C 57.748 210.776,57.445 210.697,56.702 210.697 C 55.959 210.697,55.656 210.776,56.027 210.873 M101.929 210.873 C 102.300 210.970,102.907 210.970,103.279 210.873 C 103.650 210.776,103.346 210.697,102.604 210.697 C 101.861 210.697,101.557 210.776,101.929 210.873 M351.479 212.048 L 357.152 212.171 357.289 214.957 L 357.426 217.743 357.401 214.851 L 357.377 211.958 351.591 211.941 L 345.805 211.924 351.479 212.048 M218.023 224.397 L 218.109 230.858 218.225 224.601 L 218.341 218.343 223.828 218.225 L 229.315 218.106 223.626 218.021 L 217.936 217.936 218.023 224.397 M161.427 230.665 L 157.956 230.905 161.308 230.978 C 163.210 231.020,164.763 230.884,164.899 230.665 C 165.030 230.453,165.084 230.312,165.018 230.353 C 164.952 230.393,163.337 230.533,161.427 230.665 M178.934 230.778 C 179.103 230.946,180.787 231.031,182.677 230.968 L 186.114 230.853 182.370 230.663 C 180.312 230.558,178.765 230.610,178.934 230.778 M135.856 230.951 C 137.279 231.025,139.709 231.026,141.256 230.952 C 142.803 230.879,141.639 230.818,138.669 230.818 C 135.699 230.817,134.433 230.877,135.856 230.951 M328.363 230.949 C 329.377 231.029,330.939 231.028,331.834 230.947 C 332.729 230.866,331.900 230.801,329.990 230.802 C 328.081 230.803,327.349 230.870,328.363 230.949 M344.359 230.954 C 347.170 231.020,351.770 231.020,354.581 230.954 C 357.392 230.888,355.092 230.834,349.470 230.834 C 343.848 230.834,341.548 230.888,344.359 230.954 M136.327 246.673 C 136.328 251.553,136.383 253.496,136.450 250.991 C 136.518 248.486,136.517 244.494,136.450 242.119 C 136.382 239.744,136.327 241.794,136.327 246.673 M309.527 250.530 C 309.526 257.531,309.579 260.450,309.642 257.016 C 309.706 253.582,309.706 247.854,309.643 244.287 C 309.579 240.720,309.527 243.529,309.527 250.530 M258.149 240.590 C 258.944 240.673,260.246 240.673,261.041 240.590 C 261.837 240.506,261.186 240.438,259.595 240.438 C 258.004 240.438,257.353 240.506,258.149 240.590 M328.811 251.880 C 328.811 258.139,328.864 260.699,328.929 257.570 C 328.994 254.441,328.994 249.320,328.929 246.191 C 328.864 243.062,328.811 245.622,328.811 251.880 " stroke="none" fill="#a19974" fill-rule="evenodd"></path><path id="path4" d="M7.519 231.630 C 7.519 292.729,7.564 317.667,7.618 287.047 C 7.673 256.427,7.673 206.437,7.618 175.957 C 7.564 145.478,7.519 170.530,7.519 231.630 M72.636 200.771 C 72.639 202.044,72.711 202.519,72.796 201.825 C 72.882 201.132,72.881 200.091,72.792 199.511 C 72.704 198.931,72.634 199.499,72.636 200.771 M333.445 215.043 C 333.445 223.742,333.496 227.355,333.558 223.073 C 333.620 218.791,333.620 211.675,333.558 207.258 C 333.496 202.842,333.445 206.345,333.445 215.043 M133.252 215.815 C 133.252 224.089,133.303 227.419,133.365 223.215 C 133.427 219.011,133.427 212.241,133.365 208.171 C 133.302 204.101,133.251 207.541,133.252 215.815 M339.230 215.815 C 339.230 224.089,339.282 227.419,339.344 223.215 C 339.406 219.011,339.406 212.241,339.344 208.171 C 339.281 204.101,339.230 207.541,339.230 215.815 M55.256 203.169 C 55.839 203.258,56.794 203.258,57.377 203.169 C 57.960 203.081,57.483 203.009,56.316 203.009 C 55.149 203.009,54.672 203.081,55.256 203.169 M101.929 203.169 C 102.512 203.258,103.467 203.258,104.050 203.169 C 104.634 203.081,104.156 203.009,102.989 203.009 C 101.823 203.009,101.345 203.081,101.929 203.169 M141.087 205.873 C 141.780 205.958,142.822 205.957,143.401 205.869 C 143.981 205.781,143.414 205.710,142.141 205.713 C 140.868 205.715,140.394 205.787,141.087 205.873 M345.775 206.111 C 345.666 206.396,345.637 207.915,345.710 209.486 L 345.845 212.343 345.921 209.170 L 345.998 205.997 352.845 205.882 L 359.691 205.767 352.833 205.680 C 347.386 205.611,345.933 205.700,345.775 206.111 M246.578 215.043 C 246.582 215.892,246.661 216.194,246.753 215.714 C 246.845 215.234,246.842 214.540,246.745 214.171 C 246.649 213.802,246.573 214.195,246.578 215.043 M345.691 221.119 L 345.612 224.494 352.652 224.407 L 359.691 224.320 352.860 224.205 L 346.029 224.090 345.899 220.917 L 345.769 217.743 345.691 221.119 M141.071 224.386 C 141.756 224.472,142.971 224.473,143.772 224.390 C 144.572 224.306,144.012 224.236,142.527 224.235 C 141.041 224.233,140.387 224.301,141.071 224.386 M166.886 224.397 C 166.787 224.556,168.295 224.640,170.238 224.584 C 176.618 224.398,177.326 224.248,172.154 224.178 C 169.355 224.139,166.985 224.238,166.886 224.397 M198.380 224.395 C 200.246 224.466,203.197 224.466,204.937 224.395 C 206.677 224.323,205.149 224.265,201.543 224.266 C 197.936 224.266,196.513 224.325,198.380 224.395 M286.885 237.495 C 287.363 237.587,288.144 237.587,288.621 237.495 C 289.098 237.403,288.708 237.328,287.753 237.328 C 286.798 237.328,286.408 237.403,286.885 237.495 M133.249 238.100 C 133.145 238.371,133.111 242.320,133.173 246.875 L 133.285 255.159 133.374 246.600 L 133.462 238.041 134.908 237.889 L 136.355 237.738 134.896 237.673 C 134.018 237.634,133.363 237.804,133.249 238.100 M146.364 238.099 C 146.260 238.369,146.226 242.492,146.288 247.260 L 146.399 255.931 146.488 246.986 L 146.577 238.041 148.023 237.889 L 149.470 237.738 148.011 237.673 C 147.134 237.634,146.477 237.804,146.364 238.099 M161.142 237.881 C 161.622 237.974,162.317 237.970,162.685 237.874 C 163.054 237.777,162.662 237.701,161.813 237.706 C 160.964 237.710,160.663 237.789,161.142 237.881 M175.414 237.881 C 175.894 237.974,176.588 237.970,176.957 237.874 C 177.326 237.777,176.933 237.701,176.085 237.706 C 175.236 237.710,174.935 237.789,175.414 237.881 M190.458 237.881 C 190.938 237.974,191.632 237.970,192.001 237.874 C 192.369 237.777,191.977 237.701,191.128 237.706 C 190.280 237.710,189.978 237.789,190.458 237.881 M202.122 237.761 C 202.122 237.845,202.801 237.978,203.632 238.057 C 204.463 238.136,205.060 238.068,204.959 237.905 C 204.776 237.608,202.122 237.474,202.122 237.761 M217.936 237.761 C 217.936 237.845,218.631 237.979,219.479 238.060 C 220.328 238.141,221.022 238.073,221.022 237.908 C 221.022 237.743,220.328 237.608,219.479 237.608 C 218.631 237.608,217.936 237.677,217.936 237.761 M232.498 237.896 C 234.460 237.966,237.671 237.966,239.634 237.896 C 241.596 237.826,239.990 237.769,236.066 237.769 C 232.141 237.769,230.535 237.826,232.498 237.896 M253.984 238.094 C 253.882 238.361,253.846 244.132,253.906 250.919 L 254.013 263.259 254.104 250.639 L 254.195 238.019 258.727 237.897 L 263.259 237.774 258.715 237.691 C 255.356 237.630,254.122 237.735,253.984 238.094 M307.333 237.881 C 307.813 237.974,308.507 237.970,308.876 237.874 C 309.245 237.777,308.852 237.701,308.004 237.706 C 307.155 237.710,306.854 237.789,307.333 237.881 M322.929 237.896 C 325.198 237.964,329.017 237.964,331.415 237.897 C 333.814 237.829,331.958 237.773,327.290 237.773 C 322.623 237.773,320.661 237.828,322.929 237.896 M343.202 237.881 C 343.679 237.973,344.460 237.973,344.937 237.881 C 345.415 237.789,345.024 237.714,344.069 237.714 C 343.115 237.714,342.724 237.789,343.202 237.881 M357.864 237.881 C 358.344 237.974,359.038 237.970,359.407 237.874 C 359.775 237.777,359.383 237.701,358.534 237.706 C 357.686 237.710,357.384 237.789,357.864 237.881 M256.592 244.841 L 256.509 249.566 259.691 249.488 L 262.874 249.411 259.896 249.280 L 256.919 249.148 256.797 244.632 L 256.675 240.116 256.592 244.841 M163.331 253.230 C 163.331 258.746,163.385 260.949,163.451 258.126 C 163.517 255.302,163.517 250.789,163.451 248.097 C 163.385 245.404,163.331 247.715,163.331 253.230 M269.335 244.744 C 269.340 245.593,269.419 245.895,269.511 245.415 C 269.603 244.935,269.600 244.241,269.503 243.872 C 269.407 243.503,269.331 243.896,269.335 244.744 M292.729 244.667 C 292.908 244.847,293.641 244.933,294.358 244.859 C 295.628 244.729,295.620 244.720,294.031 244.533 C 293.135 244.427,292.549 244.487,292.729 244.667 M231.989 252.004 C 231.881 252.285,231.843 254.237,231.904 256.344 L 232.015 260.174 237.608 260.189 L 243.202 260.205 237.705 260.082 L 232.208 259.960 232.208 255.932 L 232.208 251.903 237.126 251.783 L 242.044 251.662 237.114 251.579 C 233.324 251.514,232.139 251.613,231.989 252.004 M256.594 257.570 L 256.679 263.259 256.797 257.779 L 256.916 252.298 259.895 252.167 L 262.874 252.036 259.691 251.958 L 256.509 251.880 256.594 257.570 M352.710 257.473 C 352.710 260.656,352.770 261.906,352.842 260.252 C 352.915 258.599,352.915 255.995,352.841 254.466 C 352.768 252.938,352.709 254.291,352.710 257.473 M350.009 257.666 C 350.009 260.743,350.069 262.001,350.142 260.463 C 350.215 258.925,350.215 256.408,350.142 254.870 C 350.069 253.332,350.009 254.590,350.009 257.666 M77.651 260.559 C 77.653 261.832,77.725 262.306,77.811 261.613 C 77.897 260.920,77.895 259.878,77.807 259.299 C 77.719 258.719,77.649 259.286,77.651 260.559 M287.078 260.632 C 287.449 260.729,288.057 260.729,288.428 260.632 C 288.799 260.535,288.496 260.456,287.753 260.456 C 287.011 260.456,286.707 260.535,287.078 260.632 M287.066 392.877 C 287.643 393.484,288.185 393.903,288.269 393.808 C 288.354 393.713,287.882 393.216,287.220 392.704 L 286.017 391.773 287.066 392.877 " stroke="none" fill="#8c8466" fill-rule="evenodd"></path></g></svg>