<?xml version="1.0" encoding="UTF-8"?>
<!DOCTYPE svg PUBLIC "-//W3C//DTD SVG 1.1//EN" "http://www.w3.org/Graphics/SVG/1.1/DTD/svg11.dtd">
<svg xmlns="http://www.w3.org/2000/svg" version="1.1" width="546px" height="551px" style="shape-rendering:geometricPrecision; text-rendering:geometricPrecision; image-rendering:optimizeQuality; fill-rule:evenodd; clip-rule:evenodd" xmlns:xlink="http://www.w3.org/1999/xlink">
<g><path style="opacity:1" fill="#019470" d="M 247.5,25.5 C 347.765,24.1995 423.598,66.1995 475,151.5C 490.634,180.237 500.134,210.903 503.5,243.5C 495.5,243.5 487.5,243.5 479.5,243.5C 466.332,159.866 421.332,100.699 344.5,66C 273.347,38.9835 205.347,45.3169 140.5,85C 64.9501,138.973 32.4501,212.473 43,305.5C 59.2544,386.946 105.421,443.779 181.5,476C 193.871,480.679 206.538,484.346 219.5,487C 217.122,494.553 215.122,502.219 213.5,510C 132.466,492.398 73.9657,446.232 38,371.5C 11.6503,309.648 9.65026,246.648 32,182.5C 64.4469,104.399 121.614,54.2325 203.5,32C 218.171,28.8362 232.837,26.6695 247.5,25.5 Z"/></g>
<g><path style="opacity:1" fill="#029470" d="M 245.5,97.5 C 316.974,94.5435 371.808,122.877 410,182.5C 420.647,201.275 427.813,221.275 431.5,242.5C 423.167,243.833 414.833,243.833 406.5,242.5C 393.235,183.839 357.902,145.339 300.5,127C 239.922,112.862 188.756,128.695 147,174.5C 107.53,226.237 101.864,281.57 130,340.5C 153.313,381.116 187.979,406.45 234,416.5C 232.734,424.495 231.067,432.495 229,440.5C 161.849,425.013 117.182,384.68 95,319.5C 77.5124,248.98 95.0124,188.814 147.5,139C 175.942,115.132 208.609,101.299 245.5,97.5 Z"/></g>
<g><path style="opacity:1" fill="#019470" d="M 250.5,175.5 C 285.975,173.37 314.809,186.036 337,213.5C 342.888,222.609 347.721,232.276 351.5,242.5C 342.833,243.833 334.167,243.833 325.5,242.5C 309.539,210.104 283.539,196.271 247.5,201C 216.933,208.568 198.1,227.734 191,258.5C 187.356,295.055 202.189,320.889 235.5,336C 240.75,337.812 246.084,339.312 251.5,340.5C 249.705,348.142 248.038,355.809 246.5,363.5C 204.195,355.361 178.028,330.361 168,288.5C 161.739,250.602 173.239,219.436 202.5,195C 217.006,184.668 233.006,178.168 250.5,175.5 Z"/></g>
<g><path style="opacity:1" fill="#029470" d="M 508.5,296.5 C 524.437,302.943 532.77,314.776 533.5,332C 532.589,365.37 516.923,388.536 486.5,401.5C 481.336,397.175 476.002,393.008 470.5,389C 465.362,386.343 460.028,384.176 454.5,382.5C 481.586,372.909 499.419,354.242 508,326.5C 510.731,316.459 510.898,306.459 508.5,296.5 Z"/></g>
<g><path style="opacity:1" fill="#029470" d="M 375.5,314.5 C 386.289,313.975 396.955,314.808 407.5,317C 417.97,320.605 422.303,327.771 420.5,338.5C 404.112,338.075 387.779,338.742 371.5,340.5C 369.415,346.677 368.082,353.011 367.5,359.5C 358.149,360.687 348.816,360.687 339.5,359.5C 341.05,344.964 343.717,330.631 347.5,316.5C 356.991,315.833 366.325,315.167 375.5,314.5 Z"/></g>
<g><path style="opacity:1" fill="#019470" d="M 327.5,410.5 C 344.871,410.104 362.205,410.604 379.5,412C 390.603,414.93 396.27,422.097 396.5,433.5C 381.921,433.176 367.421,433.51 353,434.5C 350.469,441.091 348.136,447.758 346,454.5C 342.594,473.605 338.761,492.605 334.5,511.5C 304.835,512.336 275.168,513.002 245.5,513.5C 245.675,505.959 247.008,498.626 249.5,491.5C 269.167,490.833 288.833,490.167 308.5,489.5C 312.077,482.196 314.577,474.529 316,466.5C 319.522,447.75 323.355,429.083 327.5,410.5 Z"/></g>
<g><path style="opacity:1" fill="#039470" d="M 487.5,409.5 C 497.78,412.613 504.614,419.28 508,429.5C 509.397,436.452 509.73,443.452 509,450.5C 506.75,466.727 504.583,482.727 502.5,498.5C 502.833,500.167 503.167,501.833 503.5,503.5C 505.382,504.093 507.215,504.76 509,505.5C 509.751,509.595 507.918,511.762 503.5,512C 501.333,512.167 499.167,512.333 497,512.5C 470.183,512.423 443.35,512.256 416.5,512C 414.559,505.115 413.892,497.948 414.5,490.5C 437.131,488.968 459.798,488.301 482.5,488.5C 483.167,486.181 483.334,483.847 483,481.5C 479.816,480.158 477.983,477.824 477.5,474.5C 480.473,457.466 483.64,440.466 487,423.5C 487.499,418.845 487.666,414.179 487.5,409.5 Z"/></g>
</svg>
